<?xml version="1.0" encoding="UTF-8"?>
<svg id="Layer_1" data-name="Layer 1" xmlns="http://www.w3.org/2000/svg" viewBox="0 0 250 250">
  <path d="M127.56344,248.28107C49.51263,248.28107,1.02483,201.09962,1.02483,125.14443,1.02483,49.1949,47.54556,2.01391,122.43656,2.01391c78.05074,0,126.53861,47.18099,126.53861,123.13053,0,36.72827-11.65564,67.79821-33.70633,89.85062-21.76807,21.77578-52.09981,33.28601-87.7054,33.28601" style="fill: #fff;"/>
  <g>
    <path d="M192.95594,178.17316c.08878,5.89061-.73623,11.75938-2.44567,17.39718-1.52637,4.57912-3.3534,6.10549-7.93252,6.10549h-27.46894c-2.24805,.2678-4.28755-1.33753-4.55533-3.58559-.02715-.22797-.03511-.45781-.02379-.6871-.04854-.62677,.05665-1.25593,.30643-1.83281,1.24971-3.63201,1.86957-7.45088,1.8328-11.29169,0-44.88348-98.2892-19.83707-98.2892-84.54607,0-32.95579,26.24322-54.92632,67.14309-54.92632,22.10728-.18008,43.88049,5.39921,63.17683,16.18881,2.29265,1.1627,3.71716,3.53538,3.66561,6.10549-.01931,1.80309-.43585,3.57976-1.21995,5.20354l-9.46467,20.14351c-1.19755,2.62551-3.82693,4.30144-6.71257,4.27847-1.61111,.02893-3.19789-.39582-4.57912-1.22572-13.92909-8.44268-29.7856-13.18352-46.06295-13.77205-16.18881,0-25.63614,5.9147-25.63614,15.25795,0,28.58481,98.28921,11.90456,98.28921,81.18689"/>
    <path id="Path_3942" data-name="Path 3942" d="M72.8581,162.60877c-10.72859-.74668-20.03114,7.34527-20.77782,18.07385-.06914,.99349-.06197,1.9908,.02145,2.98318-.69784,10.95907,7.62053,20.40884,18.57959,21.1067,1.02967,.06555,2.06289,.05088,3.09029-.04391,10.83809,.63582,20.13953-7.63476,20.77535-18.47285,.05061-.86281,.04428-1.728-.01898-2.58996,.79025-10.86635-7.37803-20.31589-18.24438-21.10615-1.1411-.08298-2.28725-.06654-3.4255,.04914" style="fill: #7a00e6;"/>
  </g>
</svg>